Coordinates
version=1
nRows=17
nColumns=40
inDegrees=yes

Units are S.I. units (second, meters, Newtons, ...)
Angles are in degrees.

endheader
time	pelvis_tilt	pelvis_list	pelvis_rotation	pelvis_tx	pelvis_ty	pelvis_tz	hip_flexion_r	hip_adduction_r	hip_rotation_r	knee_angle_r	knee_angle_r_beta	ankle_angle_r	subtalar_angle_r	mtp_angle_r	hip_flexion_l	hip_adduction_l	hip_rotation_l	knee_angle_l	knee_angle_l_beta	ankle_angle_l	subtalar_angle_l	mtp_angle_l	lumbar_extension	lumbar_bending	lumbar_rotation	arm_flex_r	arm_add_r	arm_rot_r	elbow_flex_r	pro_sup_r	wrist_flex_r	wrist_dev_r	arm_flex_l	arm_add_l	arm_rot_l	elbow_flex_l	pro_sup_l	wrist_flex_l	wrist_dev_l
      4.66000000	     -3.01822840	     -3.35057129	     -0.13277370	      1.09399655	      0.92110745	      0.40202422	     17.78053740	     -8.39845927	     -4.24022287	     53.35200157	     53.35200157	      4.46177485	    -15.25285682	     -9.47391861	     18.63179927	     -0.96879432	     -3.62282590	     29.35467736	     29.35467736	     16.29244206	    -17.10843032	      4.02927586	     -9.43998940	      4.71771079	      2.74727977	     11.50693001	    -15.23301685	     -6.06281481	     33.77378747	     46.35079088	      0.00000000	      0.00000000	     19.31012462	    -15.28491868	     16.32330628	     39.17998674	     45.55172928	      0.00000000	      0.00000000
      4.68285714	     -2.98006313	     -3.39733731	     -0.74426161	      1.09235858	      0.92109947	      0.40147099	     19.37245745	     -8.21361526	     -3.44630686	     55.23593104	     55.23593104	      4.07211217	    -15.40714813	     -8.12411795	     18.35722937	     -1.07225510	     -4.03795296	     29.44693343	     29.44693343	     16.67090674	    -17.18744677	      4.38680787	     -9.63388962	      4.82334855	      2.58022594	      8.21168327	    -14.75017565	     -5.83815169	     31.78307789	     46.38771772	      0.00000000	      0.00000000	     21.10452407	    -15.68086298	     15.78359718	     40.43788744	     45.64489296	      0.00000000	      0.00000000
      4.70571429	     -2.93334239	     -3.62936319	     -1.37528800	      1.09072289	      0.92157090	      0.40139843	     20.87330225	     -7.73203867	     -2.81656317	     56.69843140	     56.69843140	      5.84052499	    -14.23224823	     -1.69507797	     18.01971667	     -1.40143178	     -4.42249377	     29.48900453	     29.48900453	     17.45767514	    -17.05892444	      5.78306422	     -9.85556523	      5.10283015	      2.17158178	      5.47398016	    -14.19473683	     -5.60680259	     29.11876166	     46.44072065	      0.00000000	      0.00000000	     22.34134055	    -16.34160857	     14.27806766	     42.77882340	     45.86674659	      0.00000000	      0.00000000
      4.72857143	     -3.00597596	     -3.75178594	     -2.12075629	      1.08897134	      0.92219012	      0.40170369	     22.18902860	     -7.32450371	     -2.28099051	     56.98576397	     56.98576397	      5.79694600	    -14.15179849	     -1.62027382	     17.61039914	     -1.66581737	     -5.01314162	     29.11734603	     29.11734603	     17.54498711	    -17.07002359	      5.82169457	     -9.97642165	      5.31347212	      2.14947891	      2.31131907	    -13.83514191	     -5.47172006	     27.73451153	     46.45908118	      0.00000000	      0.00000000	     24.11106322	    -16.89824873	     13.67826138	     44.02448439	     45.96104355	      0.00000000	      0.00000000
      4.75142857	     -3.13015431	     -3.89009248	     -2.88796786	      1.08715409	      0.92316861	      0.40245683	     23.29700572	     -6.84586865	     -1.93729114	     56.33232300	     56.33232300	      6.05251130	    -13.94096696	     -1.62507283	     17.16669050	     -1.98079045	     -5.67519101	     28.59005540	     28.59005540	     17.54615023	    -16.99797772	      5.83110829	    -10.08006405	      5.41957427	      2.22466312	     -0.85386934	    -13.44230514	     -5.39136819	     26.57087483	     46.47156929	      0.00000000	      0.00000000	     25.86170425	    -17.40097934	     12.94232180	     45.63839674	     46.07109472	      0.00000000	      0.00000000
      4.77428571	     -3.30790279	     -4.03436056	     -3.73811447	      1.08529957	      0.92432799	      0.40356461	     24.24902520	     -6.32520302	     -1.71986384	     54.84450002	     54.84450002	      6.48869390	    -13.52056802	     -1.97779599	     16.66470729	     -2.32613172	     -6.40694017	     27.86924749	     27.86924749	     17.47415753	    -16.89163627	      5.78757797	    -10.13998130	      5.56426043	      2.26228499	     -3.79887257	    -13.09254590	     -5.41852956	     25.81479354	     46.47663208	      0.00000000	      0.00000000	     27.45003185	    -18.04174632	     12.06800934	     47.40066677	     46.19245235	      0.00000000	      0.00000000
      4.79714286	     -3.53497197	     -4.15228332	     -4.65324743	      1.08336590	      0.92561239	      0.40501165	     25.00229093	     -5.81079898	     -1.66470134	     52.48907431	     52.48907431	      6.92978458	    -12.92548608	     -2.84909179	     16.15123977	     -2.66901578	     -7.23841862	     27.03229686	     27.03229686	     17.28788094	    -16.77875521	      5.62579271	    -10.19262206	      5.68238743	      2.30217481	     -6.53491148	    -12.80125777	     -5.58496223	     25.55952402	     46.47259217	      0.00000000	      0.00000000	     28.84679510	    -18.76528401	     10.98489083	     49.39884501	     46.33242133	      0.00000000	      0.00000000
      4.82000000	     -3.89189774	     -4.26709786	     -5.60992843	      1.08141284	      0.92678209	      0.40681329	     25.56594310	     -5.25791720	     -1.77541074	     49.21174842	     49.21174842	      6.90707669	    -12.29407273	     -5.23707453	     15.70416528	     -3.04181951	     -8.13528389	     26.06990412	     26.06990412	     16.88063654	    -16.67521669	      4.97797811	    -10.10737089	      5.81788938	      2.14137190	     -9.22015710	    -12.59766927	     -6.14223401	     26.42590915	     46.44849148	      0.00000000	      0.00000000	     29.68996784	    -19.59341234	      9.16092927	     52.11143666	     46.54710825	      0.00000000	      0.00000000
      4.84285714	     -4.19591585	     -4.38254013	     -6.60032644	      1.07948012	      0.92801597	      0.40892708	     25.75582848	     -4.65496576	     -2.00054564	     45.17313945	     45.17313945	      6.60808354	    -11.45069337	     -7.80291789	     15.17643768	     -3.41113839	     -9.03437216	     25.08886502	     25.08886502	     16.43996443	    -16.64440870	      4.35622280	    -10.07242086	      5.93375046	      1.91616266	    -11.36691225	    -12.43168199	     -6.65591326	     27.08372896	     46.43236775	      0.00000000	      0.00000000	     30.70372353	    -20.46783779	      7.42360566	     54.03423458	     46.75022242	      0.00000000	      0.00000000
      4.86571429	     -4.57913725	     -4.48214576	     -7.59055886	      1.07756914	      0.92904043	      0.41134752	     25.81513477	     -3.99134730	     -2.29690178	     40.79301889	     40.79301889	      6.98001942	     -9.69546581	     -7.59435789	     14.78148872	     -3.78313558	     -9.90184306	     24.23773323	     24.23773323	     16.35603807	    -16.49333629	      4.50602891	     -9.87514413	      6.05487677	      1.89403530	    -12.95271518	    -12.35343670	     -6.70149504	     26.69860685	     46.43647985	      0.00000000	      0.00000000	     32.08788940	    -21.28123386	      6.90596407	     54.92847765	     46.81670682	      0.00000000	      0.00000000
      4.88857143	     -4.85254396	     -4.50065185	     -8.57530059	      1.07582451	      0.92994960	      0.41400356	     25.51280557	     -3.42477210	     -2.73930833	     36.10441852	     36.10441852	      7.06130847	     -7.28679046	     -7.19398809	     14.27243702	     -4.06911158	    -10.82478301	     23.42076865	     23.42076865	     16.23855257	    -16.34265844	      4.51058289	     -9.80403399	      6.04487117	      2.06265160	    -14.39563962	    -12.28876615	     -6.83301728	     26.66177410	     46.43266341	      0.00000000	      0.00000000	     33.41778377	    -21.97853692	      6.23472207	     56.16993628	     46.90001472	      0.00000000	      0.00000000
      4.91142857	     -5.22878035	     -4.44292270	     -9.50837045	      1.07415149	      0.93035228	      0.41691815	     25.17890960	     -2.84306302	     -3.14605802	     31.42393176	     31.42393176	      6.78718203	     -4.80320162	     -6.39835131	     13.93981787	     -4.29316032	    -11.68082072	     22.70967679	     22.70967679	     16.14102454	    -16.25613177	      4.45844562	     -9.54630662	      5.98093679	      2.15780481	    -15.46557740	    -12.16785346	     -6.97018383	     26.78010301	     46.42594242	      0.00000000	      0.00000000	     34.58664777	    -22.62255967	      5.61249350	     57.25627151	     46.97678001	      0.00000000	      0.00000000
      4.93428571	     -5.26107562	     -4.28161946	    -10.36808374	      1.07300577	      0.93071736	      0.41983234	     24.54813545	     -2.61363422	     -4.08213679	     27.41027691	     27.41027691	      7.23964726	     -0.73042887	     -3.41713567	     13.18832808	     -4.34702730	    -12.65568908	     21.91250235	     21.91250235	     15.55218379	    -16.23214225	      2.84296017	     -9.73654920	      5.78814233	      2.03556878	    -17.05222671	    -12.25875946	     -8.06514022	     29.47694335	     46.35920722	      0.00000000	      0.00000000	     34.73660575	    -23.14616562	      2.87733129	     60.50912862	     47.25265068	      0.00000000	      0.00000000
      4.95714286	     -5.46617402	     -4.12539225	    -11.06646595	      1.07195496	      0.93060693	      0.42302043	     23.98814125	     -2.12685282	     -4.41481918	     23.61471434	     23.61471434	      6.50009076	      1.49356152	     -2.14297145	     12.81970403	     -4.42756319	    -13.31496487	     21.49419525	     21.49419525	     15.59531602	    -16.18818560	      2.75482630	     -9.50731370	      5.63249257	      2.11196782	    -17.55117624	    -12.22032285	     -8.09967797	     29.44631327	     46.35640043	      0.00000000	      0.00000000	     35.81223347	    -23.56005046	      2.49333896	     61.19556647	     47.30245472	      0.00000000	      0.00000000
      4.98000000	     -5.42198882	     -3.92722985	    -11.67946739	      1.07130866	      0.93052627	      0.42620882	     23.49283885	     -1.95775540	     -5.29016532	     21.12184136	     21.12184136	      6.89795746	      4.77766670	      1.93200589	     12.14384114	     -4.41215525	    -14.03543596	     20.99799729	     20.99799729	     15.30986603	    -16.12662280	      1.57229946	     -9.60359393	      5.39605170	      2.07744810	    -18.09153123	    -12.31299278	     -8.56084741	     30.57060184	     46.31795094	      0.00000000	      0.00000000	     36.26259010	    -23.81594317	      0.64962056	     63.04879631	     47.48267196	      0.00000000	      0.00000000
      5.00285714	     -5.48512627	     -3.71636832	    -12.12730356	      1.07100300	      0.93014068	      0.42958529	     23.04788646	     -1.65121771	     -5.48795659	     19.00459831	     19.00459831	      6.21388016	      6.17958327	      2.81273654	     11.69422510	     -4.39034778	    -14.53566280	     20.72693042	     20.72693042	     15.43063465	    -16.05531701	      1.47536894	     -9.37335865	      5.20979680	      2.12672694	    -18.23343065	    -12.36191490	     -8.58378567	     30.58460537	     46.31544174	      0.00000000	      0.00000000	     37.09731209	    -23.95114996	      0.35846610	     63.65938422	     47.52134360	      0.00000000	      0.00000000
      5.02571429	     -5.39966175	     -3.52240509	    -12.47237046	      1.07106584	      0.92984023	      0.43300903	     22.65755564	     -1.52990210	     -6.01205919	     17.88607086	     17.88607086	      5.93229929	      7.77664830	      3.79827985	     11.05123507	     -4.35501885	    -15.03352024	     20.42074741	     20.42074741	     15.49335157	    -15.83750724	      0.95627208	     -9.34710995	      5.02488425	      2.13792251	    -18.26911654	    -12.48687333	     -8.78202711	     30.94501983	     46.30430278	      0.00000000	      0.00000000	     37.48193710	    -23.88273975	     -0.80938999	     64.95782911	     47.63306687	      0.00000000	      0.00000000
